<?xml version="1.0" encoding="UTF-8"?>
<svg id="Layer_2" data-name="Layer 2" xmlns="http://www.w3.org/2000/svg" viewBox="0 0 128.1 128.97">
  <defs>
    <style>
      .cls-1 {
        fill: #fff;
      }
    </style>
  </defs>
  <g id="Layer_2-2" data-name="Layer 2">
    <g id="Layer_6" data-name="Layer 6">
      <g>
        <g>
          <path class="cls-1" d="M30.65,50.72c-2.63.14-5.09.13-7.64-.24-9.98-1.47-18.65-8.01-21.75-17.28C-1.08,26.22-.14,18.53,3.88,12.28c2.7-4.2,6.68-7.43,11.33-9.56C21.2-.02,28.03-.65,34.51.67c7.86,1.6,15.06,6.64,18.59,13.52,3.9,7.61,3.72,16.54-.74,23.88-3.01,4.95-7.61,8.59-13.16,10.76-2.75,1.07-5.49,1.73-8.55,1.9h0ZM36.27,37.7c5.39-2.98,8.06-8.57,7.17-14.33-.56-3.65-2.49-6.74-5.53-9.05-6.25-4.75-16.22-4.23-21.83,1.66-3.51,3.68-4.75,8.92-3.2,13.69,3.09,9.48,14.99,12.69,23.39,8.04h0Z"/>
          <path class="cls-1" d="M0,89.84v-18.59c0-2.75.32-5.3,1.14-7.89,1.47-4.06,4.44-7.39,8.78-9.09,7.12-2.78,16.01-1.69,21.19,3.92,1.29,1.39,2.08,2.97,2.89,4.74l21.87-10.79v12.3l-12.73,6.34-7.77,3.82-.02,4.31h20.54l-.02,10.93H0ZM24.21,78.92v-8.25c-.1-1.24-.29-2.38-.6-3.58-.61-1.13-1.39-2.2-2.64-2.79-3.26-1.55-7.96-.59-9.26,3.02-.31,1.09-.51,2.18-.51,3.34v8.28h13.01v-.02Z"/>
          <path class="cls-1" d="M55.87,118.07v10.89H.02L0,111c0-2.86.3-5.53,1.26-8.21,1.3-3.27,3.37-6.13,6.58-8.03,2.78-1.65,6-2.47,9.33-2.55,5.16-.12,10.01,1.81,13.36,5.38,1.23,1.31,2.04,2.77,2.87,4.31,1,2.71,1.63,5.42,1.64,8.29l.02,7.9h20.81v-.02ZM24,118.05v-7.07c.04-1.55-.14-3.04-.7-4.47-1.16-2.69-4.06-4.07-7.13-3.49-1.59.3-2.96,1.07-3.81,2.4s-1.26,2.83-1.26,4.4v8.25l12.89-.02h.01Z"/>
          <polygon class="cls-1" points="72.61 128.93 63.68 128.97 63.67 77.6 63.68 0 72.61 .02 72.61 128.93"/>
          <path class="cls-1" d="M117.81,68.39l-20.42.02-.02,8.51h24.28v7.91h-34.79v-39.98c11.6,0,23.2,0,34.79-.02v7.87c-8.09.04-16.18.08-24.28.12l.02,7.76h20.42v7.81Z"/>
          <polygon class="cls-1" points="109.11 39.47 99.39 39.49 99.4 8.91 86.86 8.88 86.85 0 121.65 0 121.65 8.89 109.11 8.89 109.11 39.47"/>
        </g>
        <path class="cls-1" d="M113.4,120.42h-18.46l-3.57,8.54-10.96-.03,10.66-23.59,7.51-16.66h11.29l7.54,16.66,10.69,23.59-11.06.04-3.63-8.55h-.01ZM110.12,112.72l-4.13-10.03-1.8-4.49-3.44,8.46-2.51,6.07h11.88Z"/>
      </g>
    </g>
  </g>
</svg>