<?xml version="1.0" encoding="UTF-8"?>
<svg id="Layer_2" data-name="Layer 2" xmlns="http://www.w3.org/2000/svg" viewBox="0 0 1034.72 1041.74">
  <defs>
    <style>
      .cls-1 {
        fill: #fff;
      }
    </style>
  </defs>
  <g id="Layer_1-2" data-name="Layer 1">
    <g id="Layer_2-2" data-name="Layer 2-2">
      <g id="Layer_6" data-name="Layer 6">
        <g>
          <g>
            <path class="cls-1" d="M247.58,409.68c-21.24,1.13-41.11,1.05-61.71-1.94-80.61-11.87-150.64-64.7-175.68-139.58C-8.71,211.79-1.12,149.67,31.35,99.19c21.81-33.92,53.96-60.01,91.52-77.22C171.25-.16,226.42-5.25,278.76,5.41c63.49,12.92,121.64,53.63,150.16,109.21,31.5,61.47,30.05,133.6-5.98,192.89-24.31,39.98-61.47,69.38-106.3,86.91-22.21,8.64-44.34,13.97-69.06,15.35h0v-.08ZM292.98,304.52c43.54-24.07,65.1-69.22,57.91-115.75-4.52-29.48-20.11-54.44-44.67-73.1-50.48-38.37-131.01-34.17-176.33,13.41-28.35,29.72-38.37,72.05-25.85,110.58,24.96,76.57,121.08,102.5,188.93,64.94h0v-.08Z"/>
            <path class="cls-1" d="M.01,725.67v-150.16c0-22.21,2.58-42.81,9.21-63.73,11.87-32.79,35.86-59.69,70.92-73.42,57.51-22.46,129.32-13.65,171.16,31.66,10.42,11.23,16.8,23.99,23.34,38.29l176.65-87.15v99.35l-102.82,51.21-62.76,30.86-.16,34.81h165.91l-.16,88.29H.01ZM195.56,637.46v-66.64c-.81-10.02-2.34-19.22-4.85-28.92-4.93-9.13-11.23-17.77-21.32-22.54-26.33-12.52-64.3-4.77-74.8,24.39-2.5,8.8-4.12,17.61-4.12,26.98v66.88h105.09s0-.16,0-.16Z"/>
            <path class="cls-1" d="M451.29,953.69v87.96H.17L.01,896.59c0-23.1,2.42-44.67,10.18-66.32,10.5-26.41,27.22-49.51,53.15-64.86,22.46-13.33,48.46-19.95,75.36-20.6,41.68-.97,80.85,14.62,107.91,43.46,9.94,10.58,16.48,22.37,23.18,34.81,8.08,21.89,13.17,43.78,13.25,66.96l.16,63.81h168.09s0-.16,0-.16ZM193.87,953.53v-57.11c.32-12.52-1.13-24.56-5.65-36.11-9.37-21.73-32.79-32.87-57.59-28.19-12.84,2.42-23.91,8.64-30.77,19.39s-10.18,22.86-10.18,35.54v66.64l104.12-.16s.08,0,.08,0Z"/>
            <polygon class="cls-1" points="586.51 1041.41 514.38 1041.74 514.3 626.8 514.38 0 586.51 .16 586.51 1041.41"/>
            <path class="cls-1" d="M951.6,552.41l-164.94.16-.16,68.74h196.12v63.89h-281.01v-322.93c93.7,0,187.39,0,281.01-.16v63.57c-65.35.32-130.69.65-196.12.97l.16,62.68h164.94v63.08Z"/>
            <polygon class="cls-1" points="881.33 318.81 802.82 318.97 802.9 71.97 701.61 71.73 701.53 0 982.62 0 982.62 71.81 881.33 71.81 881.33 318.81"/>
          </g>
          <path class="cls-1" d="M915.98,972.67h-149.11l-28.84,68.98-88.53-.24,86.1-190.54,60.66-134.57h91.19l60.9,134.57,86.35,190.54-89.34.32-29.32-69.06h-.08ZM889.49,910.48l-33.36-81.02-14.54-36.27-27.79,68.33-20.27,49.03h95.96v-.08Z"/>
        </g>
      </g>
    </g>
  </g>
</svg>